<svg width="150" height="150" xmlns="http://www.w3.org/2000/svg">
  <!-- Corner border decoration -->
  <g>
    <!-- Outer border -->
    <path d="M0 0 L150 0 L150 10 L10 10 L10 150 L0 150 Z" fill="#FFD700" opacity="0.3"/>
    
    <!-- Middle border -->
    <path d="M5 5 L145 5 L145 12 L12 12 L12 145 L5 145 Z" fill="#FFD700" opacity="0.5"/>
    
    <!-- Inner decorative line -->
    <path d="M15 15 L135 15 L135 20 L20 20 L20 135 L15 135 Z" fill="#FFD700" opacity="0.7"/>
    
    <!-- Decorative corner flourish -->
    <circle cx="25" cy="25" r="5" fill="#FFD700" opacity="0.6"/>
    <circle cx="40" cy="25" r="3" fill="#FFD700" opacity="0.5"/>
    <circle cx="25" cy="40" r="3" fill="#FFD700" opacity="0.5"/>
    
    <!-- Small decorative elements -->
    <path d="M30 10 Q35 15 30 20" stroke="#8B4513" stroke-width="1.5" fill="none" opacity="0.4"/>
    <path d="M10 30 Q15 35 20 30" stroke="#8B4513" stroke-width="1.5" fill="none" opacity="0.4"/>
    
    <!-- Dot pattern -->
    <circle cx="50" cy="15" r="2" fill="#8B4513" opacity="0.3"/>
    <circle cx="15" cy="50" r="2" fill="#8B4513" opacity="0.3"/>
  </g>
</svg>
