<svg viewBox="0 0 180 180" xmlns="http://www.w3.org/2000/svg">
  <!-- Origami Elephant with geometric folded paper style -->
  <defs>
    <linearGradient id="elephantGrad1" x1="0%" y1="0%" x2="100%" y2="100%">
      <stop offset="0%" style="stop-color:#8B7968;stop-opacity:0.9" />
      <stop offset="100%" style="stop-color:#6B5D52;stop-opacity:1" />
    </linearGradient>
    <linearGradient id="elephantGrad2" x1="0%" y1="0%" x2="100%" y2="100%">
      <stop offset="0%" style="stop-color:#A38D7A;stop-opacity:0.8" />
      <stop offset="100%" style="stop-color:#8B7968;stop-opacity:1" />
    </linearGradient>
    <linearGradient id="elephantAccent" x1="0%" y1="0%" x2="100%" y2="100%">
      <stop offset="0%" style="stop-color:#C9A57B;stop-opacity:0.7" />
      <stop offset="100%" style="stop-color:#A68960;stop-opacity:0.8" />
    </linearGradient>
  </defs>
  
  <!-- Body (main geometric shape) -->
  <path d="M 90,90 L 70,80 L 60,100 L 65,130 L 90,140 L 115,130 L 120,100 L 110,80 Z" fill="url(#elephantGrad1)"/>
  
  <!-- Head (polygon) -->
  <path d="M 90,90 L 70,70 L 75,50 L 90,45 L 105,50 L 110,70 Z" fill="url(#elephantGrad2)"/>
  
  <!-- Trunk (curved geometric shapes) -->
  <path d="M 90,45 L 85,40 L 80,50 L 78,65 L 75,75 L 73,80 L 80,78 L 82,70 L 85,55 L 88,45 Z" fill="url(#elephantGrad1)"/>
  <path d="M 73,80 L 70,88 L 68,95 L 75,93 L 78,85 L 80,78 Z" fill="url(#elephantGrad2)"/>
  
  <!-- Ears (large triangular shapes) -->
  <path d="M 75,60 L 50,55 L 55,75 L 70,70 Z" fill="url(#elephantAccent)" opacity="0.7"/>
  <path d="M 105,60 L 130,55 L 125,75 L 110,70 Z" fill="url(#elephantAccent)" opacity="0.7"/>
  
  <!-- Legs (rectangular shapes) -->
  <rect x="65" y="130" width="12" height="35" fill="url(#elephantGrad1)" rx="2"/>
  <rect x="78" y="130" width="12" height="35" fill="url(#elephantGrad2)" rx="2"/>
  <rect x="95" y="130" width="12" height="35" fill="url(#elephantGrad1)" rx="2"/>
  <rect x="108" y="130" width="12" height="35" fill="url(#elephantGrad2)" rx="2"/>
  
  <!-- Tail (thin triangle) -->
  <path d="M 115,110 L 125,115 L 130,105 L 118,108 Z" fill="url(#elephantGrad2)" opacity="0.8"/>
  
  <!-- Tusks (white triangles) -->
  <path d="M 80,55 L 75,65 L 78,60 Z" fill="#F5F2EE" opacity="0.9"/>
  <path d="M 100,55 L 105,65 L 102,60 Z" fill="#F5F2EE" opacity="0.9"/>
  
  <!-- Eye -->
  <circle cx="85" cy="58" r="3" fill="#2D4E5C" opacity="0.8"/>
  
  <!-- Decorative blanket pattern -->
  <path d="M 70,95 L 90,100 L 110,95 L 115,110 L 90,120 L 65,110 Z" fill="url(#elephantAccent)" opacity="0.5"/>
  <circle cx="90" cy="108" r="4" fill="#C9A57B" opacity="0.6"/>
  <circle cx="78" cy="105" r="3" fill="#C9A57B" opacity="0.5"/>
  <circle cx="102" cy="105" r="3" fill="#C9A57B" opacity="0.5"/>
  
  <!-- Paper fold lines -->
  <line x1="90" y1="45" x2="90" y2="140" stroke="#2D4E5C" stroke-width="0.5" opacity="0.2" stroke-dasharray="2,2"/>
  <line x1="70" y1="80" x2="110" y2="80" stroke="#2D4E5C" stroke-width="0.5" opacity="0.2" stroke-dasharray="2,2"/>
</svg>