<svg viewBox="0 0 200 200" xmlns="http://www.w3.org/2000/svg">
  <!-- Origami Peacock with geometric folded paper style -->
  <defs>
    <linearGradient id="peacockGrad1" x1="0%" y1="0%" x2="100%" y2="100%">
      <stop offset="0%" style="stop-color:#4A7C91;stop-opacity:0.9" />
      <stop offset="100%" style="stop-color:#2D4E5C;stop-opacity:1" />
    </linearGradient>
    <linearGradient id="peacockGrad2" x1="0%" y1="0%" x2="100%" y2="100%">
      <stop offset="0%" style="stop-color:#6B9EB1;stop-opacity:0.8" />
      <stop offset="100%" style="stop-color:#4A7C91;stop-opacity:1" />
    </linearGradient>
    <linearGradient id="featherGrad" x1="0%" y1="0%" x2="100%" y2="100%">
      <stop offset="0%" style="stop-color:#C9A57B;stop-opacity:0.7" />
      <stop offset="100%" style="stop-color:#A68960;stop-opacity:0.9" />
    </linearGradient>
  </defs>
  
  <!-- Tail feathers (geometric shapes) -->
  <path d="M 100,150 L 120,60 L 130,50 L 120,55 L 100,145 Z" fill="url(#featherGrad)" opacity="0.7"/>
  <path d="M 100,150 L 140,70 L 150,62 L 138,68 L 100,145 Z" fill="url(#featherGrad)" opacity="0.6"/>
  <path d="M 100,150 L 155,85 L 163,80 L 153,86 L 100,145 Z" fill="url(#featherGrad)" opacity="0.5"/>
  
  <path d="M 100,150 L 80,60 L 70,50 L 80,55 L 100,145 Z" fill="url(#featherGrad)" opacity="0.7"/>
  <path d="M 100,150 L 60,70 L 50,62 L 62,68 L 100,145 Z" fill="url(#featherGrad)" opacity="0.6"/>
  <path d="M 100,150 L 45,85 L 37,80 L 47,86 L 100,145 Z" fill="url(#featherGrad)" opacity="0.5"/>
  
  <!-- Feather eyes (geometric circles) -->
  <circle cx="130" cy="50" r="6" fill="#4A7C91" opacity="0.6"/>
  <circle cx="150" cy="62" r="5" fill="#4A7C91" opacity="0.5"/>
  <circle cx="163" cy="80" r="4" fill="#4A7C91" opacity="0.4"/>
  
  <circle cx="70" cy="50" r="6" fill="#4A7C91" opacity="0.6"/>
  <circle cx="50" cy="62" r="5" fill="#4A7C91" opacity="0.5"/>
  <circle cx="37" cy="80" r="4" fill="#4A7C91" opacity="0.4"/>
  
  <!-- Body (geometric polygon) -->
  <path d="M 100,150 L 85,140 L 80,155 L 90,170 L 110,170 L 120,155 L 115,140 Z" fill="url(#peacockGrad1)"/>
  
  <!-- Neck and head (angular shapes) -->
  <path d="M 92.5,140 L 95,120 L 90,110 L 95,115 Z" fill="url(#peacockGrad2)"/>
  <path d="M 107.5,140 L 105,120 L 110,110 L 105,115 Z" fill="url(#peacockGrad2)"/>
  
  <!-- Head (geometric circle) -->
  <circle cx="100" cy="110" r="12" fill="url(#peacockGrad1)"/>
  
  <!-- Beak (triangle) -->
  <path d="M 100,105 L 95,110 L 105,110 Z" fill="#2D4E5C" opacity="0.8"/>
  
  <!-- Crown feathers (angular triangles) -->
  <path d="M 100,98 L 95,88 L 98,95 Z" fill="url(#featherGrad)" opacity="0.7"/>
  <path d="M 100,98 L 105,88 L 102,95 Z" fill="url(#featherGrad)" opacity="0.7"/>
  <path d="M 100,98 L 100,85 L 100,93 Z" fill="url(#featherGrad)" opacity="0.8"/>
  
  <!-- Paper fold lines -->
  <line x1="100" y1="110" x2="100" y2="150" stroke="#2D4E5C" stroke-width="0.5" opacity="0.3" stroke-dasharray="2,2"/>
  <line x1="90" y1="140" x2="110" y2="140" stroke="#2D4E5C" stroke-width="0.5" opacity="0.3" stroke-dasharray="2,2"/>
</svg>